PathFileType        4      (X/Y/Z)      Flexion.trc         																																																																												
DataRate	CameraRate	NumFrames	NumMarkers	Units	OrigDataRate	OrigDataStartFrame	OrigNumFrames																																																																					
100	100	5	25	mm	100	264	1053																																																																					
Frame#	Time	AA			AI			Ant_Sh			CV7			GH			LAH			Lat_Sh			LCAJ			LPH			Post_Sh			RAH			RCAJ			RHLE			RHME			RPH			RUA			SJN			SXS			TS			TV8			centelbow			centpxt8			centijc7			centLPHRPH			ScapulaThoracicContactPt		
		X1	Y1	Z1	X2	Y2	Z2	X3	Y3	Z3	X4	Y4	Z4	X5	Y5	Z5	X6	Y6	Z6	X7	Y7	Z7	X8	Y8	Z8	X9	Y9	Z9	X10	Y10	Z10	X11	Y11	Z11	X12	Y12	Z12	X13	Y13	Z13	X14	Y14	Z14	X15	Y15	Z15	X16	Y16	Z16	X17	Y17	Z17	X18	Y18	Z18	X19	Y19	Z19	X20	Y20	Z20	X21	Y21	Z21	X22	Y22	Z22	X23	Y23	Z23	X24	Y24	Z24	X25	Y25	Z25
264	2.63	-859.2394409	1529.086792	-400.7086792	-925.2063599	1363.368164	-471.2026367	-746.5169067	1502.759644	-424.4295349	-896.3343506	1594.595825	-596.2962646	-801.4575806	1497.637451	-414.960022	-692.7616577	1780.302002	-648.1119385	-797.7669678	1516.498291	-383.3453979	-847.4624634	1558.632813	-785.2307129	-894.2711792	1722.078369	-656.6810913	-883.9675903	1489.944946	-400.7386475	-694.2561646	1776.034302	-551.2021484	-810.1224365	1560.848633	-438.5955505	-681.0848999	1275.280762	-277.3306885	-715.8355713	1198.643799	-360.6310425	-891.4172974	1721.884155	-540.1182251	-824.0956421	1345.206665	-334.7767944	-728.1370239	1509.625732	-614.9108276	-670.3265381	1336.558594	-618.7930908	-937.5322876	1505.631836	-505.3540344	-902.6207886	1304.63623	-603.2526245	-698.4602356	1236.96228	-318.9808655	-786.4736633	1320.597412	-611.0228577	-812.2356873	1552.110779	-605.6035461	-892.8442383	1721.981262	-598.3996582	-907.3260295	1466.028931	-459.0884501
265	2.64	-859.5073853	1528.517456	-401.5655823	-925.3707886	1363.266846	-471.4634705	-746.9943848	1501.61377	-423.4162598	-895.8131714	1594.705933	-596.2930298	-801.9067993	1497.004517	-414.4154968	-692.3286133	1780.306885	-648.031311	-798.2802124	1515.615723	-382.7596741	-846.8358154	1558.729004	-785.1796875	-893.7731934	1721.955811	-656.5167236	-884.5045776	1490.071533	-400.8767395	-693.692627	1776.145996	-551.1296997	-809.7818604	1560.577881	-438.0416565	-686.9603271	1271.0271	-277.3935547	-722.8225708	1195.531738	-361.4905396	-890.9660034	1721.851807	-540.0348511	-825.6602783	1344.386841	-336.3761292	-727.5206299	1509.575684	-614.6627808	-670.1190186	1336.462646	-618.6438599	-936.9661255	1505.604004	-505.5576782	-902.364624	1304.180176	-603.789978	-704.891449	1233.279419	-319.4420471	-786.2418213	1320.321411	-611.2169189	-811.6669006	1552.140808	-605.4779053	-892.3695984	1721.903809	-598.2757874	-907.2814331	1465.796102	-459.5289103
266	2.65	-859.6866455	1528.36731	-401.5216064	-925.4733276	1363.187866	-471.636261	-747.5046997	1500.449463	-422.5047607	-895.243042	1594.812866	-596.3284302	-802.4368896	1496.35144	-413.9427795	-691.8458862	1780.308472	-647.8359375	-798.8778076	1514.855835	-382.2512512	-846.1450806	1558.828979	-785.1483154	-893.3012085	1721.899292	-656.4546509	-885.0377197	1490.189087	-401.0682983	-693.171875	1776.188599	-550.9719849	-809.5200806	1560.318604	-437.5145569	-692.6811523	1266.994019	-277.5229492	-729.9313965	1192.724976	-362.2171631	-890.5377197	1721.765625	-539.9369507	-829.4890137	1343.48877	-336.9456787	-726.9703369	1509.428101	-614.4360962	-669.8217773	1336.381836	-618.5082397	-936.4700317	1505.552979	-505.7455139	-902.2105713	1304.202148	-603.8868408	-711.3062744	1229.859497	-319.8700562	-786.0161743	1320.291992	-611.1975403	-811.1066895	1552.120483	-605.3822632	-891.9194641	1721.832458	-598.1958008	-907.2100016	1465.702718	-459.6344604
267	2.66	-859.90271	1528.2229	-401.457428	-925.5795288	1363.137817	-471.8216858	-747.7592163	1499.558838	-421.5684204	-894.626709	1594.869751	-596.3550415	-802.9345703	1495.818848	-413.4573669	-691.3391724	1780.367432	-647.6673584	-799.4898682	1513.936279	-381.6714172	-845.5333862	1558.886353	-785.0621948	-892.795166	1721.837769	-656.3389893	-885.5834961	1490.216797	-401.3075562	-692.6808472	1776.213135	-550.8152466	-809.2127686	1560.097412	-436.9743958	-698.4265137	1263.191528	-277.5964355	-736.7886963	1190.383789	-362.9801636	-890.0881348	1721.682861	-539.8148804	-833.3078613	1342.603271	-337.5086365	-726.5015869	1509.269165	-614.2033081	-669.6087646	1336.257568	-618.3588257	-935.9967651	1505.469604	-505.9400635	-902.0567627	1304.256836	-604.079834	-717.607605	1226.787659	-320.2882996	-785.8327637	1320.257202	-611.2193298	-810.5641479	1552.069458	-605.2791748	-891.4416504	1721.760315	-598.0769348	-907.159668	1465.610107	-459.7397257
268	2.67	-860.1478882	1528.067505	-401.4670715	-925.6384277	1363.046997	-471.9201355	-748.1592407	1498.606689	-420.6220093	-894.149231	1594.976685	-596.2321777	-803.3190308	1495.290161	-412.9645691	-690.876709	1780.393066	-647.4898071	-799.9840088	1513.129028	-381.214325	-844.9113159	1558.954468	-785.0691528	-892.3101807	1721.759399	-656.2679443	-886.0895996	1490.313477	-401.4741516	-692.1923218	1776.220093	-550.6422119	-809.0074463	1559.802979	-436.5493164	-703.9549561	1259.634766	-277.8519897	-743.7052002	1188.045288	-363.5941467	-889.6426392	1721.601074	-539.7085571	-836.982666	1341.928589	-338.1107788	-726.1021729	1509.109375	-614.0072632	-669.3318481	1336.129883	-618.1976929	-935.5415039	1505.369263	-506.0804138	-901.9041138	1304.27124	-604.1663818	-723.8300781	1223.840027	-320.7230682	-785.617981	1320.200562	-611.1820374	-810.1257019	1552.04303	-605.1197205	-890.9764099	1721.680237	-597.9882507	-907.1092733	1465.494588	-459.8225403
